<mxfile host="app.diagrams.net" modified="2022-09-03T00:21:22.983Z" agent="5.0 (Windows NT 10.0; Win64; x64) AppleWebKit/537.36 (KHTML, like Gecko) Chrome/104.0.0.0 Safari/537.36" etag="DuTNwa9_8DrpRakALoJb" version="17.4.0" type="github" pages="2">
  <diagram id="R2lEEEUBdFMjLlhIrx00" name="Page-1">
    <mxGraphModel dx="1125" dy="547" grid="1" gridSize="10" guides="1" tooltips="1" connect="1" arrows="1" fold="1" page="1" pageScale="1" pageWidth="850" pageHeight="1100" math="0" shadow="0" extFonts="Permanent Marker^https://fonts.googleapis.com/css?family=Permanent+Marker">
      <root>
        <mxCell id="0" />
        <mxCell id="1" parent="0" />
        <mxCell id="xJnIrRIf_URgN7wCy2Ms-1" value="NOTAÇÃO PETER CHEN" style="text;html=1;strokeColor=none;fillColor=none;align=left;verticalAlign=middle;whiteSpace=wrap;rounded=0;fontSize=24;" parent="1" vertex="1">
          <mxGeometry x="10" y="20" width="310" height="30" as="geometry" />
        </mxCell>
        <mxCell id="xJnIrRIf_URgN7wCy2Ms-2" value="" style="rounded=0;whiteSpace=wrap;html=1;fontSize=18;align=left;strokeWidth=2;" parent="1" vertex="1">
          <mxGeometry x="61.5" y="70" width="100" height="40" as="geometry" />
        </mxCell>
        <mxCell id="xJnIrRIf_URgN7wCy2Ms-3" value="&lt;font style=&quot;font-size: 14px;&quot;&gt;ENTIDADE&lt;/font&gt;" style="text;html=1;strokeColor=none;fillColor=none;align=left;verticalAlign=middle;whiteSpace=wrap;rounded=0;fontSize=14;fontStyle=1" parent="1" vertex="1">
          <mxGeometry x="171.5" y="80" width="100" height="20" as="geometry" />
        </mxCell>
        <mxCell id="xJnIrRIf_URgN7wCy2Ms-6" value="&lt;font style=&quot;font-size: 14px&quot;&gt;ENTIDADE FRACA&lt;/font&gt;" style="text;html=1;strokeColor=none;fillColor=none;align=left;verticalAlign=middle;whiteSpace=wrap;rounded=0;fontSize=14;fontStyle=1" parent="1" vertex="1">
          <mxGeometry x="171.5" y="140" width="140" height="20" as="geometry" />
        </mxCell>
        <mxCell id="xJnIrRIf_URgN7wCy2Ms-7" value="" style="shape=ext;margin=3;double=1;whiteSpace=wrap;html=1;align=center;rounded=0;shadow=0;glass=0;sketch=0;fontSize=14;strokeWidth=2;gradientColor=none;" parent="1" vertex="1">
          <mxGeometry x="61.5" y="130" width="100" height="40" as="geometry" />
        </mxCell>
        <mxCell id="xJnIrRIf_URgN7wCy2Ms-8" value="" style="shape=associativeEntity;whiteSpace=wrap;html=1;align=center;rounded=0;shadow=0;glass=0;sketch=0;fontSize=14;strokeWidth=2;gradientColor=none;" parent="1" vertex="1">
          <mxGeometry x="61.5" y="190" width="100" height="40" as="geometry" />
        </mxCell>
        <mxCell id="xJnIrRIf_URgN7wCy2Ms-9" value="&lt;font style=&quot;font-size: 14px&quot;&gt;ENTIDADE ASSOCIATIVA&lt;/font&gt;" style="text;html=1;strokeColor=none;fillColor=none;align=left;verticalAlign=middle;whiteSpace=wrap;rounded=0;fontSize=14;fontStyle=1" parent="1" vertex="1">
          <mxGeometry x="171.5" y="200" width="200" height="20" as="geometry" />
        </mxCell>
        <mxCell id="xJnIrRIf_URgN7wCy2Ms-10" value="" style="shape=rhombus;perimeter=rhombusPerimeter;whiteSpace=wrap;html=1;align=center;rounded=0;shadow=0;glass=0;sketch=0;fontSize=24;strokeWidth=2;gradientColor=none;" parent="1" vertex="1">
          <mxGeometry x="61.5" y="250" width="100" height="40" as="geometry" />
        </mxCell>
        <mxCell id="xJnIrRIf_URgN7wCy2Ms-11" value="RELACIONAMENTO" style="text;html=1;strokeColor=none;fillColor=none;align=left;verticalAlign=middle;whiteSpace=wrap;rounded=0;fontSize=14;fontStyle=1" parent="1" vertex="1">
          <mxGeometry x="171.5" y="260" width="200" height="20" as="geometry" />
        </mxCell>
        <mxCell id="xJnIrRIf_URgN7wCy2Ms-12" value="" style="shape=rhombus;double=1;perimeter=rhombusPerimeter;whiteSpace=wrap;html=1;align=center;rounded=0;shadow=0;glass=0;sketch=0;fontSize=24;strokeWidth=2;gradientColor=none;" parent="1" vertex="1">
          <mxGeometry x="61.5" y="310" width="100" height="40" as="geometry" />
        </mxCell>
        <mxCell id="xJnIrRIf_URgN7wCy2Ms-13" value="RELACIONAMENTO FRACO" style="text;html=1;strokeColor=none;fillColor=none;align=left;verticalAlign=middle;whiteSpace=wrap;rounded=0;fontSize=14;fontStyle=1" parent="1" vertex="1">
          <mxGeometry x="171.5" y="320" width="200" height="20" as="geometry" />
        </mxCell>
        <mxCell id="xJnIrRIf_URgN7wCy2Ms-14" value="" style="endArrow=none;html=1;rounded=0;fontSize=24;strokeWidth=2;" parent="1" edge="1">
          <mxGeometry relative="1" as="geometry">
            <mxPoint x="61.5" y="421" as="sourcePoint" />
            <mxPoint x="161.5" y="421" as="targetPoint" />
          </mxGeometry>
        </mxCell>
        <mxCell id="xJnIrRIf_URgN7wCy2Ms-15" value="1" style="resizable=0;html=1;align=right;verticalAlign=bottom;" parent="xJnIrRIf_URgN7wCy2Ms-14" connectable="0" vertex="1">
          <mxGeometry x="1" relative="1" as="geometry" />
        </mxCell>
        <mxCell id="xJnIrRIf_URgN7wCy2Ms-16" value="" style="endArrow=none;html=1;rounded=0;fontSize=24;strokeWidth=2;" parent="1" edge="1">
          <mxGeometry relative="1" as="geometry">
            <mxPoint x="61.5" y="441" as="sourcePoint" />
            <mxPoint x="161.5" y="441" as="targetPoint" />
          </mxGeometry>
        </mxCell>
        <mxCell id="xJnIrRIf_URgN7wCy2Ms-17" value="N" style="resizable=0;html=1;align=right;verticalAlign=bottom;" parent="xJnIrRIf_URgN7wCy2Ms-16" connectable="0" vertex="1">
          <mxGeometry x="1" relative="1" as="geometry" />
        </mxCell>
        <mxCell id="xJnIrRIf_URgN7wCy2Ms-18" value="CARDINALIDADE" style="text;html=1;strokeColor=none;fillColor=none;align=left;verticalAlign=middle;whiteSpace=wrap;rounded=0;fontSize=14;fontStyle=1" parent="1" vertex="1">
          <mxGeometry x="171.5" y="418" width="200" height="20" as="geometry" />
        </mxCell>
        <mxCell id="xJnIrRIf_URgN7wCy2Ms-19" value="" style="shape=link;html=1;rounded=0;fontSize=24;strokeWidth=2;" parent="1" edge="1">
          <mxGeometry relative="1" as="geometry">
            <mxPoint x="61.5" y="471" as="sourcePoint" />
            <mxPoint x="161.5" y="471" as="targetPoint" />
          </mxGeometry>
        </mxCell>
        <mxCell id="xJnIrRIf_URgN7wCy2Ms-21" value="PARTICIPAÇÃO TOTAL" style="text;html=1;strokeColor=none;fillColor=none;align=left;verticalAlign=middle;whiteSpace=wrap;rounded=0;fontSize=14;fontStyle=1" parent="1" vertex="1">
          <mxGeometry x="171.5" y="460" width="200" height="20" as="geometry" />
        </mxCell>
        <mxCell id="xJnIrRIf_URgN7wCy2Ms-22" value="" style="ellipse;whiteSpace=wrap;html=1;align=center;rounded=0;shadow=0;glass=0;sketch=0;fontSize=24;strokeWidth=2;gradientColor=none;" parent="1" vertex="1">
          <mxGeometry x="440" y="70" width="100" height="40" as="geometry" />
        </mxCell>
        <mxCell id="xJnIrRIf_URgN7wCy2Ms-23" value="&amp;nbsp; &amp;nbsp; &amp;nbsp; &amp;nbsp; &amp;nbsp;&amp;nbsp;" style="ellipse;whiteSpace=wrap;html=1;align=center;fontStyle=4;rounded=0;shadow=0;glass=0;sketch=0;fontSize=24;strokeWidth=2;gradientColor=none;" parent="1" vertex="1">
          <mxGeometry x="440" y="130" width="100" height="40" as="geometry" />
        </mxCell>
        <mxCell id="xJnIrRIf_URgN7wCy2Ms-24" value="" style="ellipse;whiteSpace=wrap;html=1;align=center;dashed=1;rounded=0;shadow=0;glass=0;sketch=0;fontSize=24;strokeWidth=2;gradientColor=none;" parent="1" vertex="1">
          <mxGeometry x="440" y="190" width="100" height="40" as="geometry" />
        </mxCell>
        <mxCell id="xJnIrRIf_URgN7wCy2Ms-25" value="" style="ellipse;shape=doubleEllipse;margin=3;whiteSpace=wrap;html=1;align=center;rounded=0;shadow=0;glass=0;sketch=0;fontSize=24;strokeWidth=2;gradientColor=none;" parent="1" vertex="1">
          <mxGeometry x="440" y="250" width="100" height="40" as="geometry" />
        </mxCell>
        <mxCell id="xJnIrRIf_URgN7wCy2Ms-30" style="edgeStyle=orthogonalEdgeStyle;rounded=0;orthogonalLoop=1;jettySize=auto;html=1;entryX=0.5;entryY=0;entryDx=0;entryDy=0;fontSize=24;strokeWidth=2;endArrow=none;endFill=0;" parent="1" source="xJnIrRIf_URgN7wCy2Ms-26" target="xJnIrRIf_URgN7wCy2Ms-27" edge="1">
          <mxGeometry relative="1" as="geometry" />
        </mxCell>
        <mxCell id="xJnIrRIf_URgN7wCy2Ms-31" style="rounded=0;orthogonalLoop=1;jettySize=auto;html=1;entryX=0;entryY=0;entryDx=0;entryDy=0;fontSize=24;endArrow=none;endFill=0;strokeWidth=2;" parent="1" source="xJnIrRIf_URgN7wCy2Ms-26" target="xJnIrRIf_URgN7wCy2Ms-28" edge="1">
          <mxGeometry relative="1" as="geometry" />
        </mxCell>
        <mxCell id="xJnIrRIf_URgN7wCy2Ms-32" style="edgeStyle=none;rounded=0;orthogonalLoop=1;jettySize=auto;html=1;entryX=0;entryY=0;entryDx=0;entryDy=0;fontSize=24;endArrow=none;endFill=0;strokeWidth=2;" parent="1" source="xJnIrRIf_URgN7wCy2Ms-26" target="xJnIrRIf_URgN7wCy2Ms-29" edge="1">
          <mxGeometry relative="1" as="geometry" />
        </mxCell>
        <mxCell id="xJnIrRIf_URgN7wCy2Ms-26" value="" style="ellipse;whiteSpace=wrap;html=1;align=center;rounded=0;shadow=0;glass=0;sketch=0;fontSize=24;strokeWidth=2;gradientColor=none;" parent="1" vertex="1">
          <mxGeometry x="440" y="310" width="100" height="40" as="geometry" />
        </mxCell>
        <mxCell id="xJnIrRIf_URgN7wCy2Ms-27" value="" style="ellipse;whiteSpace=wrap;html=1;align=center;rounded=0;shadow=0;glass=0;sketch=0;fontSize=24;strokeWidth=2;gradientColor=none;" parent="1" vertex="1">
          <mxGeometry x="440" y="380" width="100" height="40" as="geometry" />
        </mxCell>
        <mxCell id="xJnIrRIf_URgN7wCy2Ms-28" value="" style="ellipse;whiteSpace=wrap;html=1;align=center;rounded=0;shadow=0;glass=0;sketch=0;fontSize=24;strokeWidth=2;gradientColor=none;" parent="1" vertex="1">
          <mxGeometry x="560" y="380" width="100" height="40" as="geometry" />
        </mxCell>
        <mxCell id="xJnIrRIf_URgN7wCy2Ms-29" value="" style="ellipse;whiteSpace=wrap;html=1;align=center;rounded=0;shadow=0;glass=0;sketch=0;fontSize=24;strokeWidth=2;gradientColor=none;" parent="1" vertex="1">
          <mxGeometry x="710" y="380" width="100" height="40" as="geometry" />
        </mxCell>
        <mxCell id="xJnIrRIf_URgN7wCy2Ms-33" value="&lt;font style=&quot;font-size: 14px&quot;&gt;ATRIBUTO&lt;/font&gt;" style="text;html=1;strokeColor=none;fillColor=none;align=left;verticalAlign=middle;whiteSpace=wrap;rounded=0;fontSize=14;fontStyle=1" parent="1" vertex="1">
          <mxGeometry x="560" y="80" width="100" height="20" as="geometry" />
        </mxCell>
        <mxCell id="xJnIrRIf_URgN7wCy2Ms-34" value="&lt;font style=&quot;font-size: 14px&quot;&gt;ATRIBUTO CHAVE&lt;/font&gt;" style="text;html=1;strokeColor=none;fillColor=none;align=left;verticalAlign=middle;whiteSpace=wrap;rounded=0;fontSize=14;fontStyle=1" parent="1" vertex="1">
          <mxGeometry x="560" y="140" width="160" height="20" as="geometry" />
        </mxCell>
        <mxCell id="xJnIrRIf_URgN7wCy2Ms-35" value="&lt;font style=&quot;font-size: 14px&quot;&gt;ATRIBUTO DERIVADO&lt;/font&gt;" style="text;html=1;strokeColor=none;fillColor=none;align=left;verticalAlign=middle;whiteSpace=wrap;rounded=0;fontSize=14;fontStyle=1" parent="1" vertex="1">
          <mxGeometry x="560" y="200" width="160" height="20" as="geometry" />
        </mxCell>
        <mxCell id="xJnIrRIf_URgN7wCy2Ms-36" value="&lt;font style=&quot;font-size: 14px&quot;&gt;ATRIBUTO MULTIVALORADO&lt;/font&gt;" style="text;html=1;strokeColor=none;fillColor=none;align=left;verticalAlign=middle;whiteSpace=wrap;rounded=0;fontSize=14;fontStyle=1" parent="1" vertex="1">
          <mxGeometry x="560" y="260" width="200" height="20" as="geometry" />
        </mxCell>
        <mxCell id="xJnIrRIf_URgN7wCy2Ms-37" value="&lt;font style=&quot;font-size: 14px&quot;&gt;ATRIBUTO COMPOSTO&lt;/font&gt;" style="text;html=1;strokeColor=none;fillColor=none;align=left;verticalAlign=middle;whiteSpace=wrap;rounded=0;fontSize=14;fontStyle=1" parent="1" vertex="1">
          <mxGeometry x="560" y="310" width="200" height="20" as="geometry" />
        </mxCell>
        <mxCell id="xJnIrRIf_URgN7wCy2Ms-38" value="&lt;font style=&quot;font-size: 14px&quot;&gt;...&lt;/font&gt;" style="text;html=1;strokeColor=none;fillColor=none;align=left;verticalAlign=middle;whiteSpace=wrap;rounded=0;fontSize=14;fontStyle=1" parent="1" vertex="1">
          <mxGeometry x="670" y="390" width="20" height="20" as="geometry" />
        </mxCell>
        <mxCell id="xJnIrRIf_URgN7wCy2Ms-39" value="&lt;font style=&quot;font-size: 12px;&quot;&gt;Faculdade&lt;/font&gt;" style="rounded=0;whiteSpace=wrap;html=1;fontSize=12;align=center;strokeWidth=2;" parent="1" vertex="1">
          <mxGeometry x="197" y="595" width="100" height="40" as="geometry" />
        </mxCell>
        <mxCell id="xJnIrRIf_URgN7wCy2Ms-42" style="edgeStyle=none;rounded=0;orthogonalLoop=1;jettySize=auto;html=1;entryX=0;entryY=0.25;entryDx=0;entryDy=0;fontSize=14;endArrow=none;endFill=0;strokeWidth=2;" parent="1" source="xJnIrRIf_URgN7wCy2Ms-40" target="xJnIrRIf_URgN7wCy2Ms-39" edge="1">
          <mxGeometry relative="1" as="geometry" />
        </mxCell>
        <mxCell id="xJnIrRIf_URgN7wCy2Ms-46" style="edgeStyle=none;rounded=0;orthogonalLoop=1;jettySize=auto;html=1;exitX=0;exitY=1;exitDx=0;exitDy=0;entryX=0.5;entryY=0;entryDx=0;entryDy=0;fontSize=12;endArrow=none;endFill=0;strokeWidth=2;" parent="1" source="xJnIrRIf_URgN7wCy2Ms-40" target="xJnIrRIf_URgN7wCy2Ms-43" edge="1">
          <mxGeometry relative="1" as="geometry" />
        </mxCell>
        <mxCell id="xJnIrRIf_URgN7wCy2Ms-47" style="edgeStyle=none;rounded=0;orthogonalLoop=1;jettySize=auto;html=1;exitX=0.5;exitY=1;exitDx=0;exitDy=0;entryX=0.5;entryY=0;entryDx=0;entryDy=0;fontSize=12;endArrow=none;endFill=0;strokeWidth=2;" parent="1" source="xJnIrRIf_URgN7wCy2Ms-40" target="xJnIrRIf_URgN7wCy2Ms-44" edge="1">
          <mxGeometry relative="1" as="geometry" />
        </mxCell>
        <mxCell id="xJnIrRIf_URgN7wCy2Ms-48" style="edgeStyle=none;rounded=0;orthogonalLoop=1;jettySize=auto;html=1;exitX=1;exitY=1;exitDx=0;exitDy=0;entryX=0.5;entryY=0;entryDx=0;entryDy=0;fontSize=12;endArrow=none;endFill=0;strokeWidth=2;" parent="1" source="xJnIrRIf_URgN7wCy2Ms-40" target="xJnIrRIf_URgN7wCy2Ms-45" edge="1">
          <mxGeometry relative="1" as="geometry" />
        </mxCell>
        <mxCell id="xJnIrRIf_URgN7wCy2Ms-40" value="Logradouro" style="ellipse;whiteSpace=wrap;align=right;rounded=0;shadow=0;glass=0;sketch=0;fontSize=12;strokeWidth=2;gradientColor=none;spacingRight=26;spacingBottom=0;" parent="1" vertex="1">
          <mxGeometry x="145" y="600" width="25" height="14" as="geometry" />
        </mxCell>
        <mxCell id="xJnIrRIf_URgN7wCy2Ms-43" value="Tipo" style="ellipse;whiteSpace=wrap;align=right;rounded=0;shadow=0;glass=0;sketch=0;fontSize=12;strokeWidth=2;gradientColor=none;spacingRight=26;spacingBottom=0;" parent="1" vertex="1">
          <mxGeometry x="120" y="620" width="25" height="14" as="geometry" />
        </mxCell>
        <mxCell id="xJnIrRIf_URgN7wCy2Ms-44" value="Nome" style="ellipse;whiteSpace=wrap;align=right;rounded=0;shadow=0;glass=0;sketch=0;fontSize=12;strokeWidth=2;gradientColor=none;spacingRight=26;spacingBottom=0;" parent="1" vertex="1">
          <mxGeometry x="145" y="635" width="25" height="14" as="geometry" />
        </mxCell>
        <mxCell id="xJnIrRIf_URgN7wCy2Ms-45" value="Número" style="ellipse;whiteSpace=wrap;align=right;rounded=0;shadow=0;glass=0;sketch=0;fontSize=12;strokeWidth=2;gradientColor=none;spacingRight=26;spacingBottom=0;" parent="1" vertex="1">
          <mxGeometry x="176" y="655" width="25" height="14" as="geometry" />
        </mxCell>
        <mxCell id="xJnIrRIf_URgN7wCy2Ms-50" style="edgeStyle=none;rounded=0;orthogonalLoop=1;jettySize=auto;html=1;entryX=0.75;entryY=1;entryDx=0;entryDy=0;fontSize=12;endArrow=none;endFill=0;strokeWidth=2;" parent="1" source="xJnIrRIf_URgN7wCy2Ms-49" target="xJnIrRIf_URgN7wCy2Ms-39" edge="1">
          <mxGeometry relative="1" as="geometry" />
        </mxCell>
        <mxCell id="xJnIrRIf_URgN7wCy2Ms-49" value="CNPJ" style="ellipse;whiteSpace=wrap;align=left;rounded=0;shadow=0;glass=0;sketch=0;fontSize=12;strokeWidth=2;gradientColor=none;spacingRight=0;spacingBottom=0;spacingLeft=26;fontStyle=4" parent="1" vertex="1">
          <mxGeometry x="260" y="646" width="25" height="14" as="geometry" />
        </mxCell>
        <mxCell id="xJnIrRIf_URgN7wCy2Ms-51" value="frequenta" style="shape=rhombus;perimeter=rhombusPerimeter;align=center;rounded=0;shadow=0;glass=0;sketch=0;fontSize=12;strokeWidth=2;gradientColor=none;whiteSpace=wrap;" parent="1" vertex="1">
          <mxGeometry x="197" y="675" width="100" height="50" as="geometry" />
        </mxCell>
        <mxCell id="xJnIrRIf_URgN7wCy2Ms-53" value="" style="endArrow=none;html=1;rounded=0;fontSize=12;strokeWidth=2;entryX=0.5;entryY=1;entryDx=0;entryDy=0;exitX=0.5;exitY=0;exitDx=0;exitDy=0;" parent="1" edge="1">
          <mxGeometry relative="1" as="geometry">
            <mxPoint x="246.83" y="675" as="sourcePoint" />
            <mxPoint x="246.83" y="635" as="targetPoint" />
          </mxGeometry>
        </mxCell>
        <mxCell id="xJnIrRIf_URgN7wCy2Ms-54" value="1" style="resizable=0;html=1;align=right;verticalAlign=bottom;" parent="xJnIrRIf_URgN7wCy2Ms-53" connectable="0" vertex="1">
          <mxGeometry x="1" relative="1" as="geometry">
            <mxPoint x="-4" y="20" as="offset" />
          </mxGeometry>
        </mxCell>
        <mxCell id="xJnIrRIf_URgN7wCy2Ms-59" value="" style="edgeStyle=none;rounded=0;orthogonalLoop=1;jettySize=auto;html=1;fontSize=12;endArrow=none;endFill=0;strokeWidth=2;" parent="1" source="xJnIrRIf_URgN7wCy2Ms-56" target="xJnIrRIf_URgN7wCy2Ms-51" edge="1">
          <mxGeometry relative="1" as="geometry" />
        </mxCell>
        <mxCell id="xJnIrRIf_URgN7wCy2Ms-56" value="&lt;font style=&quot;font-size: 12px&quot;&gt;Pessoa&lt;/font&gt;" style="rounded=0;whiteSpace=wrap;html=1;fontSize=12;align=center;strokeWidth=2;" parent="1" vertex="1">
          <mxGeometry x="197" y="765" width="100" height="40" as="geometry" />
        </mxCell>
        <mxCell id="xJnIrRIf_URgN7wCy2Ms-57" value="" style="endArrow=none;html=1;rounded=0;fontSize=12;strokeWidth=2;exitX=0.5;exitY=1;exitDx=0;exitDy=0;entryX=0.5;entryY=0;entryDx=0;entryDy=0;" parent="1" source="xJnIrRIf_URgN7wCy2Ms-51" target="xJnIrRIf_URgN7wCy2Ms-56" edge="1">
          <mxGeometry relative="1" as="geometry">
            <mxPoint x="266" y="755" as="sourcePoint" />
            <mxPoint x="426" y="755" as="targetPoint" />
          </mxGeometry>
        </mxCell>
        <mxCell id="xJnIrRIf_URgN7wCy2Ms-58" value="N" style="resizable=0;html=1;align=right;verticalAlign=bottom;" parent="xJnIrRIf_URgN7wCy2Ms-57" connectable="0" vertex="1">
          <mxGeometry x="1" relative="1" as="geometry">
            <mxPoint x="-3" y="-2" as="offset" />
          </mxGeometry>
        </mxCell>
        <mxCell id="xJnIrRIf_URgN7wCy2Ms-61" style="edgeStyle=none;rounded=0;orthogonalLoop=1;jettySize=auto;html=1;exitX=1;exitY=0.5;exitDx=0;exitDy=0;entryX=0;entryY=0.25;entryDx=0;entryDy=0;fontSize=12;endArrow=none;endFill=0;strokeWidth=2;" parent="1" source="xJnIrRIf_URgN7wCy2Ms-60" target="xJnIrRIf_URgN7wCy2Ms-56" edge="1">
          <mxGeometry relative="1" as="geometry" />
        </mxCell>
        <mxCell id="xJnIrRIf_URgN7wCy2Ms-60" value="Matrícula" style="ellipse;whiteSpace=wrap;align=right;rounded=0;shadow=0;glass=0;sketch=0;fontSize=12;strokeWidth=2;gradientColor=none;spacingRight=26;spacingBottom=0;fontStyle=4" parent="1" vertex="1">
          <mxGeometry x="151" y="768" width="25" height="14" as="geometry" />
        </mxCell>
        <mxCell id="xJnIrRIf_URgN7wCy2Ms-63" style="edgeStyle=none;rounded=0;orthogonalLoop=1;jettySize=auto;html=1;entryX=0;entryY=0.75;entryDx=0;entryDy=0;fontSize=12;endArrow=none;endFill=0;strokeWidth=2;" parent="1" source="xJnIrRIf_URgN7wCy2Ms-62" target="xJnIrRIf_URgN7wCy2Ms-56" edge="1">
          <mxGeometry relative="1" as="geometry" />
        </mxCell>
        <mxCell id="xJnIrRIf_URgN7wCy2Ms-62" value="Nome" style="ellipse;whiteSpace=wrap;align=right;rounded=0;shadow=0;glass=0;sketch=0;fontSize=12;strokeWidth=2;gradientColor=none;spacingRight=26;spacingBottom=0;fontStyle=0" parent="1" vertex="1">
          <mxGeometry x="151" y="788" width="25" height="14" as="geometry" />
        </mxCell>
        <mxCell id="xJnIrRIf_URgN7wCy2Ms-67" value="DER - SISTEMA ACADÊMICO" style="text;html=1;strokeColor=none;fillColor=none;align=left;verticalAlign=middle;whiteSpace=wrap;rounded=0;fontSize=24;" parent="1" vertex="1">
          <mxGeometry x="10" y="540" width="350" height="30" as="geometry" />
        </mxCell>
        <mxCell id="xJnIrRIf_URgN7wCy2Ms-68" value="" style="triangle;whiteSpace=wrap;html=1;rounded=0;shadow=0;glass=0;sketch=0;fontSize=12;strokeWidth=2;gradientColor=none;align=right;rotation=270;" parent="1" vertex="1">
          <mxGeometry x="96.5" y="360" width="30" height="40" as="geometry" />
        </mxCell>
        <mxCell id="xJnIrRIf_URgN7wCy2Ms-69" value="ESPECIALIZAÇÃO" style="text;html=1;strokeColor=none;fillColor=none;align=left;verticalAlign=middle;whiteSpace=wrap;rounded=0;fontSize=14;fontStyle=1" parent="1" vertex="1">
          <mxGeometry x="171.5" y="370" width="200" height="20" as="geometry" />
        </mxCell>
        <mxCell id="xJnIrRIf_URgN7wCy2Ms-70" value="oferece" style="shape=rhombus;perimeter=rhombusPerimeter;align=center;rounded=0;shadow=0;glass=0;sketch=0;fontSize=12;strokeWidth=2;gradientColor=none;whiteSpace=wrap;" parent="1" vertex="1">
          <mxGeometry x="406" y="590" width="100" height="50" as="geometry" />
        </mxCell>
        <mxCell id="xJnIrRIf_URgN7wCy2Ms-71" value="Curso" style="rounded=0;whiteSpace=wrap;html=1;fontSize=12;align=center;strokeWidth=2;" parent="1" vertex="1">
          <mxGeometry x="616" y="595" width="100" height="40" as="geometry" />
        </mxCell>
        <mxCell id="xJnIrRIf_URgN7wCy2Ms-72" value="coordena" style="shape=rhombus;perimeter=rhombusPerimeter;align=center;rounded=0;shadow=0;glass=0;sketch=0;fontSize=12;strokeWidth=2;gradientColor=none;whiteSpace=wrap;" parent="1" vertex="1">
          <mxGeometry x="406" y="745" width="100" height="50" as="geometry" />
        </mxCell>
        <mxCell id="xJnIrRIf_URgN7wCy2Ms-73" value="possui" style="shape=rhombus;perimeter=rhombusPerimeter;align=center;rounded=0;shadow=0;glass=0;sketch=0;fontSize=12;strokeWidth=2;gradientColor=none;whiteSpace=wrap;" parent="1" vertex="1">
          <mxGeometry x="616" y="750" width="100" height="50" as="geometry" />
        </mxCell>
        <mxCell id="xJnIrRIf_URgN7wCy2Ms-99" value="" style="edgeStyle=none;rounded=0;orthogonalLoop=1;jettySize=auto;html=1;fontSize=12;endArrow=none;endFill=0;strokeWidth=2;" parent="1" source="xJnIrRIf_URgN7wCy2Ms-74" target="xJnIrRIf_URgN7wCy2Ms-73" edge="1">
          <mxGeometry relative="1" as="geometry" />
        </mxCell>
        <mxCell id="xJnIrRIf_URgN7wCy2Ms-74" value="Disciplina" style="rounded=0;whiteSpace=wrap;html=1;fontSize=12;align=center;strokeWidth=2;" parent="1" vertex="1">
          <mxGeometry x="616" y="885" width="100" height="40" as="geometry" />
        </mxCell>
        <mxCell id="xJnIrRIf_URgN7wCy2Ms-76" style="edgeStyle=none;rounded=0;orthogonalLoop=1;jettySize=auto;html=1;entryX=0.5;entryY=1;entryDx=0;entryDy=0;fontSize=12;endArrow=none;endFill=0;strokeWidth=2;" parent="1" source="xJnIrRIf_URgN7wCy2Ms-75" target="xJnIrRIf_URgN7wCy2Ms-56" edge="1">
          <mxGeometry relative="1" as="geometry" />
        </mxCell>
        <mxCell id="xJnIrRIf_URgN7wCy2Ms-78" style="edgeStyle=none;rounded=0;orthogonalLoop=1;jettySize=auto;html=1;entryX=0.5;entryY=0;entryDx=0;entryDy=0;fontSize=12;endArrow=none;endFill=0;strokeWidth=2;" parent="1" source="xJnIrRIf_URgN7wCy2Ms-75" target="xJnIrRIf_URgN7wCy2Ms-77" edge="1">
          <mxGeometry relative="1" as="geometry" />
        </mxCell>
        <mxCell id="xJnIrRIf_URgN7wCy2Ms-80" style="edgeStyle=none;rounded=0;orthogonalLoop=1;jettySize=auto;html=1;entryX=0.5;entryY=0;entryDx=0;entryDy=0;fontSize=12;endArrow=none;endFill=0;strokeWidth=2;" parent="1" source="xJnIrRIf_URgN7wCy2Ms-75" target="xJnIrRIf_URgN7wCy2Ms-79" edge="1">
          <mxGeometry relative="1" as="geometry" />
        </mxCell>
        <mxCell id="xJnIrRIf_URgN7wCy2Ms-75" value="" style="triangle;whiteSpace=wrap;html=1;rounded=0;shadow=0;glass=0;sketch=0;fontSize=12;strokeWidth=2;gradientColor=none;align=center;rotation=270;" parent="1" vertex="1">
          <mxGeometry x="232" y="825" width="30" height="40" as="geometry" />
        </mxCell>
        <mxCell id="xJnIrRIf_URgN7wCy2Ms-77" value="&lt;font style=&quot;font-size: 12px&quot;&gt;Aluno&lt;/font&gt;" style="rounded=0;whiteSpace=wrap;html=1;fontSize=12;align=center;strokeWidth=2;" parent="1" vertex="1">
          <mxGeometry x="141" y="885" width="100" height="40" as="geometry" />
        </mxCell>
        <mxCell id="xJnIrRIf_URgN7wCy2Ms-79" value="Professor" style="rounded=0;whiteSpace=wrap;html=1;fontSize=12;align=center;strokeWidth=2;" parent="1" vertex="1">
          <mxGeometry x="253" y="885" width="100" height="40" as="geometry" />
        </mxCell>
        <mxCell id="xJnIrRIf_URgN7wCy2Ms-81" value="" style="endArrow=none;html=1;rounded=0;fontSize=12;strokeWidth=2;exitX=0;exitY=1;exitDx=0;exitDy=0;entryX=0.75;entryY=0;entryDx=0;entryDy=0;" parent="1" source="xJnIrRIf_URgN7wCy2Ms-72" target="xJnIrRIf_URgN7wCy2Ms-79" edge="1">
          <mxGeometry relative="1" as="geometry">
            <mxPoint x="446" y="835" as="sourcePoint" />
            <mxPoint x="606" y="835" as="targetPoint" />
          </mxGeometry>
        </mxCell>
        <mxCell id="xJnIrRIf_URgN7wCy2Ms-82" value="1" style="resizable=0;html=1;align=right;verticalAlign=bottom;" parent="xJnIrRIf_URgN7wCy2Ms-81" connectable="0" vertex="1">
          <mxGeometry x="1" relative="1" as="geometry">
            <mxPoint x="1" y="-2" as="offset" />
          </mxGeometry>
        </mxCell>
        <mxCell id="xJnIrRIf_URgN7wCy2Ms-83" value="P" style="text;html=1;strokeColor=none;fillColor=none;align=center;verticalAlign=middle;whiteSpace=wrap;rounded=0;shadow=0;glass=0;sketch=0;fontSize=12;" parent="1" vertex="1">
          <mxGeometry x="257" y="829" width="20" height="20" as="geometry" />
        </mxCell>
        <mxCell id="xJnIrRIf_URgN7wCy2Ms-84" value="" style="endArrow=none;html=1;rounded=0;fontSize=12;strokeWidth=2;entryX=0.25;entryY=1;entryDx=0;entryDy=0;exitX=1;exitY=0;exitDx=0;exitDy=0;" parent="1" source="xJnIrRIf_URgN7wCy2Ms-72" target="xJnIrRIf_URgN7wCy2Ms-71" edge="1">
          <mxGeometry relative="1" as="geometry">
            <mxPoint x="476" y="665" as="sourcePoint" />
            <mxPoint x="636" y="665" as="targetPoint" />
          </mxGeometry>
        </mxCell>
        <mxCell id="xJnIrRIf_URgN7wCy2Ms-85" value="1" style="resizable=0;html=1;align=right;verticalAlign=bottom;" parent="xJnIrRIf_URgN7wCy2Ms-84" connectable="0" vertex="1">
          <mxGeometry x="1" relative="1" as="geometry">
            <mxPoint x="-24" y="17" as="offset" />
          </mxGeometry>
        </mxCell>
        <mxCell id="xJnIrRIf_URgN7wCy2Ms-86" value="" style="endArrow=none;html=1;rounded=0;fontSize=12;strokeWidth=2;exitX=1;exitY=0.5;exitDx=0;exitDy=0;entryX=0;entryY=0.5;entryDx=0;entryDy=0;" parent="1" source="xJnIrRIf_URgN7wCy2Ms-70" target="xJnIrRIf_URgN7wCy2Ms-71" edge="1">
          <mxGeometry relative="1" as="geometry">
            <mxPoint x="506" y="625" as="sourcePoint" />
            <mxPoint x="666" y="625" as="targetPoint" />
          </mxGeometry>
        </mxCell>
        <mxCell id="xJnIrRIf_URgN7wCy2Ms-87" value="N" style="resizable=0;html=1;align=right;verticalAlign=bottom;" parent="xJnIrRIf_URgN7wCy2Ms-86" connectable="0" vertex="1">
          <mxGeometry x="1" relative="1" as="geometry">
            <mxPoint x="-4" y="-3" as="offset" />
          </mxGeometry>
        </mxCell>
        <mxCell id="xJnIrRIf_URgN7wCy2Ms-88" value="" style="endArrow=none;html=1;rounded=0;fontSize=12;strokeWidth=2;entryX=0.5;entryY=1;entryDx=0;entryDy=0;exitX=0.5;exitY=0;exitDx=0;exitDy=0;" parent="1" source="xJnIrRIf_URgN7wCy2Ms-73" target="xJnIrRIf_URgN7wCy2Ms-71" edge="1">
          <mxGeometry relative="1" as="geometry">
            <mxPoint x="736" y="655" as="sourcePoint" />
            <mxPoint x="896" y="655" as="targetPoint" />
          </mxGeometry>
        </mxCell>
        <mxCell id="xJnIrRIf_URgN7wCy2Ms-89" value="1" style="resizable=0;html=1;align=right;verticalAlign=bottom;" parent="xJnIrRIf_URgN7wCy2Ms-88" connectable="0" vertex="1">
          <mxGeometry x="1" relative="1" as="geometry">
            <mxPoint x="-3" y="18" as="offset" />
          </mxGeometry>
        </mxCell>
        <mxCell id="xJnIrRIf_URgN7wCy2Ms-91" style="edgeStyle=none;rounded=0;orthogonalLoop=1;jettySize=auto;html=1;entryX=0.75;entryY=1;entryDx=0;entryDy=0;fontSize=12;endArrow=none;endFill=0;strokeWidth=2;" parent="1" source="xJnIrRIf_URgN7wCy2Ms-90" target="xJnIrRIf_URgN7wCy2Ms-71" edge="1">
          <mxGeometry relative="1" as="geometry" />
        </mxCell>
        <mxCell id="xJnIrRIf_URgN7wCy2Ms-90" value="Nome" style="ellipse;whiteSpace=wrap;align=left;rounded=0;shadow=0;glass=0;sketch=0;fontSize=12;strokeWidth=2;gradientColor=none;spacingRight=0;spacingBottom=0;spacingLeft=26;fontStyle=0" parent="1" vertex="1">
          <mxGeometry x="679.5" y="647" width="25" height="14" as="geometry" />
        </mxCell>
        <mxCell id="xJnIrRIf_URgN7wCy2Ms-92" value="" style="endArrow=none;html=1;rounded=0;fontSize=12;strokeWidth=2;exitX=0.5;exitY=1;exitDx=0;exitDy=0;" parent="1" source="xJnIrRIf_URgN7wCy2Ms-73" target="xJnIrRIf_URgN7wCy2Ms-74" edge="1">
          <mxGeometry relative="1" as="geometry">
            <mxPoint x="786" y="805" as="sourcePoint" />
            <mxPoint x="946" y="805" as="targetPoint" />
          </mxGeometry>
        </mxCell>
        <mxCell id="xJnIrRIf_URgN7wCy2Ms-93" value="N" style="resizable=0;html=1;align=right;verticalAlign=bottom;" parent="xJnIrRIf_URgN7wCy2Ms-92" connectable="0" vertex="1">
          <mxGeometry x="1" relative="1" as="geometry">
            <mxPoint x="-3" y="-2" as="offset" />
          </mxGeometry>
        </mxCell>
        <mxCell id="xJnIrRIf_URgN7wCy2Ms-94" value="" style="endArrow=none;html=1;rounded=0;fontSize=12;strokeWidth=2;entryX=1;entryY=0.5;entryDx=0;entryDy=0;exitX=0;exitY=0.5;exitDx=0;exitDy=0;" parent="1" source="xJnIrRIf_URgN7wCy2Ms-70" target="xJnIrRIf_URgN7wCy2Ms-39" edge="1">
          <mxGeometry relative="1" as="geometry">
            <mxPoint x="366" y="695" as="sourcePoint" />
            <mxPoint x="526" y="695" as="targetPoint" />
          </mxGeometry>
        </mxCell>
        <mxCell id="xJnIrRIf_URgN7wCy2Ms-95" value="1" style="resizable=0;html=1;align=right;verticalAlign=bottom;" parent="xJnIrRIf_URgN7wCy2Ms-94" connectable="0" vertex="1">
          <mxGeometry x="1" relative="1" as="geometry">
            <mxPoint x="11" y="-2" as="offset" />
          </mxGeometry>
        </mxCell>
        <mxCell id="xJnIrRIf_URgN7wCy2Ms-96" value="ministra" style="shape=rhombus;perimeter=rhombusPerimeter;align=center;rounded=0;shadow=0;glass=0;sketch=0;fontSize=12;strokeWidth=2;gradientColor=none;whiteSpace=wrap;" parent="1" vertex="1">
          <mxGeometry x="431" y="880" width="100" height="50" as="geometry" />
        </mxCell>
        <mxCell id="xJnIrRIf_URgN7wCy2Ms-97" value="" style="endArrow=none;html=1;rounded=0;fontSize=12;strokeWidth=2;exitX=1;exitY=0.5;exitDx=0;exitDy=0;" parent="1" source="xJnIrRIf_URgN7wCy2Ms-96" edge="1">
          <mxGeometry relative="1" as="geometry">
            <mxPoint x="536" y="925" as="sourcePoint" />
            <mxPoint x="616" y="905" as="targetPoint" />
          </mxGeometry>
        </mxCell>
        <mxCell id="xJnIrRIf_URgN7wCy2Ms-98" value="N" style="resizable=0;html=1;align=right;verticalAlign=bottom;" parent="xJnIrRIf_URgN7wCy2Ms-97" connectable="0" vertex="1">
          <mxGeometry x="1" relative="1" as="geometry">
            <mxPoint x="-4" y="-2" as="offset" />
          </mxGeometry>
        </mxCell>
        <mxCell id="xJnIrRIf_URgN7wCy2Ms-100" value="" style="endArrow=none;html=1;rounded=0;fontSize=12;strokeWidth=2;entryX=1;entryY=0.5;entryDx=0;entryDy=0;exitX=0;exitY=0.5;exitDx=0;exitDy=0;" parent="1" source="xJnIrRIf_URgN7wCy2Ms-96" target="xJnIrRIf_URgN7wCy2Ms-79" edge="1">
          <mxGeometry relative="1" as="geometry">
            <mxPoint x="176" y="965" as="sourcePoint" />
            <mxPoint x="336" y="965" as="targetPoint" />
          </mxGeometry>
        </mxCell>
        <mxCell id="xJnIrRIf_URgN7wCy2Ms-101" value="1" style="resizable=0;html=1;align=right;verticalAlign=bottom;" parent="xJnIrRIf_URgN7wCy2Ms-100" connectable="0" vertex="1">
          <mxGeometry x="1" relative="1" as="geometry">
            <mxPoint x="12" y="-2" as="offset" />
          </mxGeometry>
        </mxCell>
        <mxCell id="xJnIrRIf_URgN7wCy2Ms-103" style="edgeStyle=none;rounded=0;orthogonalLoop=1;jettySize=auto;html=1;entryX=0.75;entryY=1;entryDx=0;entryDy=0;fontSize=12;endArrow=none;endFill=0;strokeWidth=2;" parent="1" source="xJnIrRIf_URgN7wCy2Ms-102" target="xJnIrRIf_URgN7wCy2Ms-74" edge="1">
          <mxGeometry relative="1" as="geometry" />
        </mxCell>
        <mxCell id="xJnIrRIf_URgN7wCy2Ms-102" value="Carga Horária" style="ellipse;whiteSpace=wrap;align=left;rounded=0;shadow=0;glass=0;sketch=0;fontSize=12;strokeWidth=2;gradientColor=none;spacingRight=0;spacingBottom=0;spacingLeft=26;fontStyle=0" parent="1" vertex="1">
          <mxGeometry x="678.5" y="941" width="25" height="14" as="geometry" />
        </mxCell>
        <mxCell id="xJnIrRIf_URgN7wCy2Ms-106" style="edgeStyle=none;rounded=0;orthogonalLoop=1;jettySize=auto;html=1;entryX=0.25;entryY=1;entryDx=0;entryDy=0;fontSize=12;endArrow=none;endFill=0;strokeWidth=2;" parent="1" source="xJnIrRIf_URgN7wCy2Ms-104" target="xJnIrRIf_URgN7wCy2Ms-74" edge="1">
          <mxGeometry relative="1" as="geometry" />
        </mxCell>
        <mxCell id="xJnIrRIf_URgN7wCy2Ms-104" value="Nome" style="ellipse;whiteSpace=wrap;align=left;rounded=0;shadow=0;glass=0;sketch=0;fontSize=12;strokeWidth=2;gradientColor=none;spacingRight=0;spacingBottom=0;spacingLeft=26;fontStyle=0" parent="1" vertex="1">
          <mxGeometry x="629" y="964" width="25" height="14" as="geometry" />
        </mxCell>
        <mxCell id="xJnIrRIf_URgN7wCy2Ms-108" style="edgeStyle=none;rounded=0;orthogonalLoop=1;jettySize=auto;html=1;entryX=0.75;entryY=1;entryDx=0;entryDy=0;fontSize=12;endArrow=none;endFill=0;strokeWidth=2;" parent="1" source="xJnIrRIf_URgN7wCy2Ms-107" target="xJnIrRIf_URgN7wCy2Ms-79" edge="1">
          <mxGeometry relative="1" as="geometry" />
        </mxCell>
        <mxCell id="xJnIrRIf_URgN7wCy2Ms-107" value="Titulação" style="ellipse;whiteSpace=wrap;align=left;rounded=0;shadow=0;glass=0;sketch=0;fontSize=12;strokeWidth=2;gradientColor=none;spacingRight=0;spacingBottom=0;spacingLeft=26;fontStyle=0" parent="1" vertex="1">
          <mxGeometry x="316" y="941" width="25" height="14" as="geometry" />
        </mxCell>
        <mxCell id="xJnIrRIf_URgN7wCy2Ms-117" style="edgeStyle=none;rounded=0;orthogonalLoop=1;jettySize=auto;html=1;entryX=0.75;entryY=1;entryDx=0;entryDy=0;fontSize=12;endArrow=none;endFill=0;strokeWidth=2;" parent="1" source="xJnIrRIf_URgN7wCy2Ms-113" target="xJnIrRIf_URgN7wCy2Ms-77" edge="1">
          <mxGeometry relative="1" as="geometry" />
        </mxCell>
        <mxCell id="xJnIrRIf_URgN7wCy2Ms-113" value="Data de Nascimento" style="ellipse;whiteSpace=wrap;align=left;rounded=0;shadow=0;glass=0;sketch=0;fontSize=12;strokeWidth=2;gradientColor=none;spacingRight=0;spacingBottom=0;spacingLeft=26;fontStyle=0" parent="1" vertex="1">
          <mxGeometry x="204" y="941" width="25" height="14" as="geometry" />
        </mxCell>
        <mxCell id="xJnIrRIf_URgN7wCy2Ms-122" style="edgeStyle=none;rounded=0;orthogonalLoop=1;jettySize=auto;html=1;fontSize=12;endArrow=none;endFill=0;strokeWidth=2;entryX=0.25;entryY=1;entryDx=0;entryDy=0;" parent="1" source="xJnIrRIf_URgN7wCy2Ms-120" target="xJnIrRIf_URgN7wCy2Ms-77" edge="1">
          <mxGeometry relative="1" as="geometry">
            <mxPoint x="176" y="935" as="targetPoint" />
          </mxGeometry>
        </mxCell>
        <mxCell id="xJnIrRIf_URgN7wCy2Ms-120" value="Telefones" style="ellipse;shape=doubleEllipse;margin=3;whiteSpace=wrap;align=left;rounded=0;shadow=0;glass=0;sketch=0;fontSize=12;strokeWidth=2;gradientColor=none;spacingLeft=26;" parent="1" vertex="1">
          <mxGeometry x="153" y="965" width="25" height="14" as="geometry" />
        </mxCell>
      </root>
    </mxGraphModel>
  </diagram>
  <diagram id="Ev0BJLIlDxMy0EW0EmNk" name="Page-2">
    <mxGraphModel dx="1324" dy="644" grid="1" gridSize="10" guides="1" tooltips="1" connect="1" arrows="1" fold="1" page="1" pageScale="1" pageWidth="1169" pageHeight="1654" math="0" shadow="0">
      <root>
        <mxCell id="0" />
        <mxCell id="1" parent="0" />
        <mxCell id="vP0PoJ6omIfyNhtRoFm_-1" value="&lt;font style=&quot;font-size: 12px&quot;&gt;estacionamento&lt;/font&gt;" style="rounded=0;whiteSpace=wrap;html=1;fontSize=18;align=center;strokeWidth=2;" vertex="1" parent="1">
          <mxGeometry x="520" y="40" width="100" height="40" as="geometry" />
        </mxCell>
        <mxCell id="Ksr16iZzyAUxVWQOiiuP-1" value="vaga" style="shape=ext;margin=3;double=1;whiteSpace=wrap;html=1;align=center;rounded=0;shadow=0;glass=0;sketch=0;fontSize=14;strokeWidth=2;gradientColor=none;" vertex="1" parent="1">
          <mxGeometry x="520" y="160" width="100" height="40" as="geometry" />
        </mxCell>
        <mxCell id="NtFpNtfi6VsW5fCt8uyZ-1" value="&lt;font style=&quot;font-size: 12px&quot;&gt;chave-estrangeira&lt;/font&gt;" style="text;html=1;align=center;verticalAlign=middle;resizable=0;points=[];autosize=1;strokeColor=none;fillColor=none;fontSize=18;" vertex="1" parent="1">
          <mxGeometry x="200" y="140" width="110" height="30" as="geometry" />
        </mxCell>
        <mxCell id="NtFpNtfi6VsW5fCt8uyZ-3" value="&lt;font style=&quot;font-size: 12px&quot;&gt;status&lt;/font&gt;" style="text;html=1;align=center;verticalAlign=middle;resizable=0;points=[];autosize=1;strokeColor=none;fillColor=none;fontSize=18;" vertex="1" parent="1">
          <mxGeometry x="390" y="183" width="50" height="30" as="geometry" />
        </mxCell>
        <mxCell id="TOT3eUzPbAMTjdc94siH-1" value="" style="shape=rhombus;perimeter=rhombusPerimeter;whiteSpace=wrap;html=1;align=center;rounded=0;shadow=0;glass=0;sketch=0;fontSize=24;strokeWidth=2;gradientColor=none;" vertex="1" parent="1">
          <mxGeometry x="1110" y="330" width="100" height="40" as="geometry" />
        </mxCell>
        <mxCell id="EzlfleWWjgHp5xj4tYDr-1" value="Carro" style="rounded=0;whiteSpace=wrap;html=1;fontSize=12;align=center;strokeWidth=2;" vertex="1" parent="1">
          <mxGeometry x="280" y="480" width="100" height="40" as="geometry" />
        </mxCell>
        <mxCell id="UEL5YnTl0NEaKXqePOl5-6" value="&lt;font style=&quot;font-size: 10px&quot;&gt;marca&lt;/font&gt;" style="text;html=1;align=center;verticalAlign=middle;resizable=0;points=[];autosize=1;strokeColor=none;fillColor=none;fontSize=17;" vertex="1" parent="1">
          <mxGeometry x="155" y="483" width="40" height="30" as="geometry" />
        </mxCell>
        <mxCell id="UEL5YnTl0NEaKXqePOl5-7" value="&lt;font style=&quot;font-size: 10px&quot;&gt;cor&lt;/font&gt;" style="text;html=1;align=center;verticalAlign=middle;resizable=0;points=[];autosize=1;strokeColor=none;fillColor=none;fontSize=17;" vertex="1" parent="1">
          <mxGeometry x="1020" y="697" width="30" height="30" as="geometry" />
        </mxCell>
        <mxCell id="UEL5YnTl0NEaKXqePOl5-8" value="&lt;font style=&quot;font-size: 10px&quot;&gt;horario de entrada&lt;/font&gt;" style="text;html=1;align=center;verticalAlign=middle;resizable=0;points=[];autosize=1;strokeColor=none;fillColor=none;fontSize=17;" vertex="1" parent="1">
          <mxGeometry x="440" y="480" width="100" height="30" as="geometry" />
        </mxCell>
        <mxCell id="UEL5YnTl0NEaKXqePOl5-9" value="&lt;font style=&quot;font-size: 10px&quot;&gt;horario de saida&lt;/font&gt;" style="text;html=1;align=center;verticalAlign=middle;resizable=0;points=[];autosize=1;strokeColor=none;fillColor=none;fontSize=17;" vertex="1" parent="1">
          <mxGeometry x="860" y="480" width="90" height="30" as="geometry" />
        </mxCell>
        <mxCell id="ZpoTCIie2CSVUTfzT2cd-1" value="&amp;nbsp; &amp;nbsp;" style="ellipse;whiteSpace=wrap;html=1;align=center;fontStyle=4;rounded=0;shadow=0;glass=0;sketch=0;fontSize=24;strokeWidth=2;gradientColor=none;" vertex="1" parent="1">
          <mxGeometry x="300" y="140" width="25" height="14" as="geometry" />
        </mxCell>
        <mxCell id="YboO7crEYyxx0AVLb4T3-1" value="" style="ellipse;whiteSpace=wrap;html=1;align=center;rounded=0;shadow=0;glass=0;sketch=0;fontSize=24;strokeWidth=2;gradientColor=none;" vertex="1" parent="1">
          <mxGeometry x="420" y="183" width="25" height="14" as="geometry" />
        </mxCell>
        <mxCell id="YboO7crEYyxx0AVLb4T3-2" value="" style="ellipse;whiteSpace=wrap;html=1;align=center;rounded=0;shadow=0;glass=0;sketch=0;fontSize=24;strokeWidth=2;gradientColor=none;" vertex="1" parent="1">
          <mxGeometry x="585" y="316" width="25" height="14" as="geometry" />
        </mxCell>
        <mxCell id="YboO7crEYyxx0AVLb4T3-4" value="" style="ellipse;whiteSpace=wrap;html=1;align=center;rounded=0;shadow=0;glass=0;sketch=0;fontSize=24;strokeWidth=2;gradientColor=none;" vertex="1" parent="1">
          <mxGeometry x="185" y="504" width="25" height="14" as="geometry" />
        </mxCell>
        <mxCell id="YboO7crEYyxx0AVLb4T3-5" value="" style="ellipse;whiteSpace=wrap;html=1;align=center;rounded=0;shadow=0;glass=0;sketch=0;fontSize=24;strokeWidth=2;gradientColor=none;" vertex="1" parent="1">
          <mxGeometry x="170" y="480" width="25" height="14" as="geometry" />
        </mxCell>
        <mxCell id="RtUHUsHv2K4omS0bFjLK-10" value="" style="ellipse;whiteSpace=wrap;html=1;align=center;rounded=0;shadow=0;glass=0;sketch=0;fontSize=24;strokeWidth=2;gradientColor=none;" vertex="1" parent="1">
          <mxGeometry x="585" y="343" width="25" height="14" as="geometry" />
        </mxCell>
        <mxCell id="RtUHUsHv2K4omS0bFjLK-11" value="&lt;font style=&quot;font-size: 10px&quot;&gt;numero da vaga&lt;/font&gt;" style="text;html=1;align=center;verticalAlign=middle;resizable=0;points=[];autosize=1;strokeColor=none;fillColor=none;fontSize=17;" vertex="1" parent="1">
          <mxGeometry x="860" y="450" width="90" height="30" as="geometry" />
        </mxCell>
        <mxCell id="SLXOXJ6BZmHKuZuLwAfg-1" value="Cliente" style="rounded=0;whiteSpace=wrap;html=1;fontSize=12;align=center;strokeWidth=2;" vertex="1" parent="1">
          <mxGeometry x="660" y="320" width="100" height="40" as="geometry" />
        </mxCell>
        <mxCell id="SLXOXJ6BZmHKuZuLwAfg-2" value="Mensalista" style="rounded=0;whiteSpace=wrap;html=1;fontSize=12;align=center;strokeWidth=2;" vertex="1" parent="1">
          <mxGeometry x="760" y="440" width="100" height="40" as="geometry" />
        </mxCell>
        <mxCell id="SLXOXJ6BZmHKuZuLwAfg-3" value="Avulso" style="rounded=0;whiteSpace=wrap;html=1;fontSize=12;align=center;strokeWidth=2;" vertex="1" parent="1">
          <mxGeometry x="565" y="440" width="100" height="40" as="geometry" />
        </mxCell>
        <mxCell id="twnnBbDu7YaBen5DvKiq-1" value="" style="triangle;whiteSpace=wrap;html=1;rounded=0;shadow=0;glass=0;sketch=0;fontSize=12;strokeWidth=2;gradientColor=none;align=center;rotation=270;" vertex="1" parent="1">
          <mxGeometry x="695" y="380" width="30" height="40" as="geometry" />
        </mxCell>
        <mxCell id="twnnBbDu7YaBen5DvKiq-2" style="edgeStyle=none;rounded=0;orthogonalLoop=1;jettySize=auto;html=1;fontSize=24;endArrow=none;endFill=0;strokeWidth=2;exitX=0.5;exitY=1;exitDx=0;exitDy=0;entryX=1;entryY=0.5;entryDx=0;entryDy=0;" edge="1" parent="1" source="SLXOXJ6BZmHKuZuLwAfg-1" target="twnnBbDu7YaBen5DvKiq-1">
          <mxGeometry relative="1" as="geometry">
            <mxPoint x="706.1499999999997" y="359.52" as="sourcePoint" />
            <mxPoint x="710" y="380" as="targetPoint" />
          </mxGeometry>
        </mxCell>
        <mxCell id="twnnBbDu7YaBen5DvKiq-4" style="edgeStyle=none;rounded=0;orthogonalLoop=1;jettySize=auto;html=1;fontSize=24;endArrow=none;endFill=0;strokeWidth=2;exitX=1;exitY=0;exitDx=0;exitDy=0;entryX=0;entryY=0.002;entryDx=0;entryDy=0;entryPerimeter=0;" edge="1" parent="1" source="SLXOXJ6BZmHKuZuLwAfg-3" target="twnnBbDu7YaBen5DvKiq-1">
          <mxGeometry relative="1" as="geometry">
            <mxPoint x="720" y="370" as="sourcePoint" />
            <mxPoint x="720" y="395" as="targetPoint" />
          </mxGeometry>
        </mxCell>
        <mxCell id="twnnBbDu7YaBen5DvKiq-5" style="edgeStyle=none;rounded=0;orthogonalLoop=1;jettySize=auto;html=1;fontSize=24;endArrow=none;endFill=0;strokeWidth=2;exitX=0;exitY=0;exitDx=0;exitDy=0;entryX=0.009;entryY=1.009;entryDx=0;entryDy=0;entryPerimeter=0;" edge="1" parent="1" source="SLXOXJ6BZmHKuZuLwAfg-2" target="twnnBbDu7YaBen5DvKiq-1">
          <mxGeometry relative="1" as="geometry">
            <mxPoint x="730" y="380" as="sourcePoint" />
            <mxPoint x="730" y="405" as="targetPoint" />
          </mxGeometry>
        </mxCell>
        <mxCell id="CQvahj5n6V1rVrxhNZ9L-3" value="&lt;font style=&quot;font-size: 10px&quot;&gt;nome&lt;/font&gt;" style="text;html=1;align=center;verticalAlign=middle;resizable=0;points=[];autosize=1;strokeColor=none;fillColor=none;fontSize=17;" vertex="1" parent="1">
          <mxGeometry x="565" y="316" width="40" height="30" as="geometry" />
        </mxCell>
        <mxCell id="CQvahj5n6V1rVrxhNZ9L-4" style="edgeStyle=none;rounded=0;orthogonalLoop=1;jettySize=auto;html=1;entryX=0;entryY=0.75;entryDx=0;entryDy=0;fontSize=24;endArrow=none;endFill=0;strokeWidth=2;exitX=1;exitY=0.5;exitDx=0;exitDy=0;" edge="1" parent="1" source="RtUHUsHv2K4omS0bFjLK-10" target="SLXOXJ6BZmHKuZuLwAfg-1">
          <mxGeometry relative="1" as="geometry">
            <mxPoint x="610" y="352.83" as="sourcePoint" />
            <mxPoint x="672.500000000002" y="352.8300000000001" as="targetPoint" />
          </mxGeometry>
        </mxCell>
        <mxCell id="CQvahj5n6V1rVrxhNZ9L-7" style="edgeStyle=none;rounded=0;orthogonalLoop=1;jettySize=auto;html=1;entryX=0;entryY=0.75;entryDx=0;entryDy=0;fontSize=24;endArrow=none;endFill=0;strokeWidth=2;exitX=1;exitY=0.5;exitDx=0;exitDy=0;" edge="1" parent="1">
          <mxGeometry relative="1" as="geometry">
            <mxPoint x="609.999999999997" y="322.83" as="sourcePoint" />
            <mxPoint x="660" y="322.83" as="targetPoint" />
          </mxGeometry>
        </mxCell>
        <mxCell id="vlsZKQLf88bB9NyKWmHe-1" value="" style="shape=rhombus;perimeter=rhombusPerimeter;whiteSpace=wrap;html=1;align=center;rounded=0;shadow=0;glass=0;sketch=0;fontSize=24;strokeWidth=2;gradientColor=none;" vertex="1" parent="1">
          <mxGeometry x="450" y="560" width="100" height="40" as="geometry" />
        </mxCell>
        <mxCell id="vlsZKQLf88bB9NyKWmHe-11" value="&lt;font style=&quot;font-size: 10px&quot;&gt;cor&lt;/font&gt;" style="text;html=1;align=center;verticalAlign=middle;resizable=0;points=[];autosize=1;strokeColor=none;fillColor=none;fontSize=17;" vertex="1" parent="1">
          <mxGeometry x="180" y="504" width="30" height="30" as="geometry" />
        </mxCell>
        <mxCell id="vlsZKQLf88bB9NyKWmHe-13" value="" style="ellipse;whiteSpace=wrap;html=1;align=center;rounded=0;shadow=0;glass=0;sketch=0;fontSize=24;strokeWidth=2;gradientColor=none;" vertex="1" parent="1">
          <mxGeometry x="235" y="551" width="25" height="14" as="geometry" />
        </mxCell>
        <mxCell id="vlsZKQLf88bB9NyKWmHe-15" value="" style="ellipse;whiteSpace=wrap;html=1;align=center;rounded=0;shadow=0;glass=0;sketch=0;fontSize=24;strokeWidth=2;gradientColor=none;" vertex="1" parent="1">
          <mxGeometry x="210" y="530" width="25" height="14" as="geometry" />
        </mxCell>
        <mxCell id="vlsZKQLf88bB9NyKWmHe-22" value="&lt;font style=&quot;font-size: 10px&quot;&gt;horario de saida&lt;/font&gt;" style="text;html=1;align=center;verticalAlign=middle;resizable=0;points=[];autosize=1;strokeColor=none;fillColor=none;fontSize=17;" vertex="1" parent="1">
          <mxGeometry x="185" y="560" width="90" height="30" as="geometry" />
        </mxCell>
        <mxCell id="vlsZKQLf88bB9NyKWmHe-23" value="&lt;font style=&quot;font-size: 10px&quot;&gt;numero da vaga&lt;/font&gt;" style="text;html=1;align=center;verticalAlign=middle;resizable=0;points=[];autosize=1;strokeColor=none;fillColor=none;fontSize=17;" vertex="1" parent="1">
          <mxGeometry x="150" y="530" width="90" height="30" as="geometry" />
        </mxCell>
        <mxCell id="Eia-Q7HmVkX2tetKKUQE-2" style="edgeStyle=none;rounded=0;orthogonalLoop=1;jettySize=auto;html=1;fontSize=24;endArrow=none;endFill=0;strokeWidth=2;entryX=1;entryY=0.5;entryDx=0;entryDy=0;" edge="1" parent="1" target="YboO7crEYyxx0AVLb4T3-5">
          <mxGeometry relative="1" as="geometry">
            <mxPoint x="280" y="487" as="sourcePoint" />
            <mxPoint x="220" y="490" as="targetPoint" />
          </mxGeometry>
        </mxCell>
        <mxCell id="Eia-Q7HmVkX2tetKKUQE-3" style="edgeStyle=none;rounded=0;orthogonalLoop=1;jettySize=auto;html=1;fontSize=24;endArrow=none;endFill=0;strokeWidth=2;entryX=0.986;entryY=0.2;entryDx=0;entryDy=0;entryPerimeter=0;exitX=0;exitY=0.75;exitDx=0;exitDy=0;" edge="1" parent="1" source="EzlfleWWjgHp5xj4tYDr-1" target="vlsZKQLf88bB9NyKWmHe-11">
          <mxGeometry relative="1" as="geometry">
            <mxPoint x="280.0000000000002" y="500" as="sourcePoint" />
            <mxPoint x="230" y="500" as="targetPoint" />
          </mxGeometry>
        </mxCell>
        <mxCell id="Eia-Q7HmVkX2tetKKUQE-4" style="edgeStyle=none;rounded=0;orthogonalLoop=1;jettySize=auto;html=1;fontSize=24;endArrow=none;endFill=0;strokeWidth=2;entryX=0;entryY=1;entryDx=0;entryDy=0;exitX=1;exitY=0;exitDx=0;exitDy=0;" edge="1" parent="1" source="vlsZKQLf88bB9NyKWmHe-15" target="EzlfleWWjgHp5xj4tYDr-1">
          <mxGeometry relative="1" as="geometry">
            <mxPoint x="260" y="520" as="sourcePoint" />
            <mxPoint x="260" y="540" as="targetPoint" />
          </mxGeometry>
        </mxCell>
        <mxCell id="Eia-Q7HmVkX2tetKKUQE-5" style="edgeStyle=none;rounded=0;orthogonalLoop=1;jettySize=auto;html=1;fontSize=24;endArrow=none;endFill=0;strokeWidth=2;entryX=1;entryY=0;entryDx=0;entryDy=0;exitX=0.25;exitY=1;exitDx=0;exitDy=0;" edge="1" parent="1" source="EzlfleWWjgHp5xj4tYDr-1" target="vlsZKQLf88bB9NyKWmHe-13">
          <mxGeometry relative="1" as="geometry">
            <mxPoint x="300" y="530" as="sourcePoint" />
            <mxPoint x="231.47000000000003" y="529.8499999999999" as="targetPoint" />
          </mxGeometry>
        </mxCell>
        <mxCell id="Eia-Q7HmVkX2tetKKUQE-6" value="Carro" style="rounded=0;whiteSpace=wrap;html=1;fontSize=12;align=center;strokeWidth=2;" vertex="1" parent="1">
          <mxGeometry x="345" y="697" width="100" height="40" as="geometry" />
        </mxCell>
      </root>
    </mxGraphModel>
  </diagram>
</mxfile>
